{
  "accessors": [
    {
      "bufferView": 2,
      "componentType": 5126,
      "count": 575,
      "max": [
        2.0,
        2.0,
        13.972768783569336
      ],
      "min": [
        -2.0,
        -2.0,
        11.492769241333008
      ],
      "type": "VEC3"
    },
    {
      "bufferView": 2,
      "byteOffset": 6900,
      "componentType": 5126,
      "count": 575,
      "max": [
        1.0,
        1.0,
        1.0
      ],
      "min": [
        -1.0,
        -1.0,
        -0.7605230212211609
      ],
      "type": "VEC3"
    },
    {
      "bufferView": 1,
      "componentType": 5126,
      "count": 575,
      "max": [
        0.99853515625,
        0.9211244583129883
      ],
      "min": [
        0.0,
        0.0
      ],
      "type": "VEC2"
    },
    {
      "bufferView": 0,
      "componentType": 5125,
      "count": 1296,
      "type": "SCALAR"
    },
    {
      "bufferView": 2,
      "byteOffset": 13800,
      "componentType": 5126,
      "count": 65532,
      "max": [
        10.064142227172852,
        1.8231732845306396,
        13.93200969696045
      ],
      "min": [
        -10.4629545211792,
        -1.8606858253479004,
        -10.037856101989746
      ],
      "type": "VEC3"
    },
    {
      "bufferView": 2,
      "byteOffset": 800184,
      "componentType": 5126,
      "count": 65532,
      "max": [
        0.9941350817680359,
        0.9999922513961792,
        0.9999801516532898
      ],
      "min": [
        -0.9998254776000977,
        -0.9999995827674866,
        -0.9720023274421692
      ],
      "type": "VEC3"
    },
    {
      "bufferView": 1,
      "byteOffset": 4600,
      "componentType": 5126,
      "count": 65532,
      "max": [
        0.0,
        0.0
      ],
      "min": [
        0.0,
        0.0
      ],
      "type": "VEC2"
    },
    {
      "bufferView": 0,
      "byteOffset": 5184,
      "componentType": 5125,
      "count": 330897,
      "type": "SCALAR"
    },
    {
      "bufferView": 2,
      "byteOffset": 1586568,
      "componentType": 5126,
      "count": 65532,
      "max": [
        10.323787689208984,
        1.8606501817703247,
        13.92972469329834
      ],
      "min": [
        -10.450350761413574,
        -1.834549069404602,
        -10.167014122009277
      ],
      "type": "VEC3"
    },
    {
      "bufferView": 2,
      "byteOffset": 2372952,
      "componentType": 5126,
      "count": 65532,
      "max": [
        0.9995876550674438,
        0.9999995231628418,
        0.9999299049377441
      ],
      "min": [
        -0.999849259853363,
        -0.9999991655349731,
        -0.9999654293060303
      ],
      "type": "VEC3"
    },
    {
      "bufferView": 1,
      "byteOffset": 528856,
      "componentType": 5126,
      "count": 65532,
      "max": [
        0.0,
        0.0
      ],
      "min": [
        0.0,
        0.0
      ],
      "type": "VEC2"
    },
    {
      "bufferView": 0,
      "byteOffset": 1328772,
      "componentType": 5125,
      "count": 327012,
      "type": "SCALAR"
    },
    {
      "bufferView": 2,
      "byteOffset": 3159336,
      "componentType": 5126,
      "count": 65532,
      "max": [
        10.4614839553833,
        1.8575793504714966,
        13.931693077087402
      ],
      "min": [
        -10.468096733093262,
        -1.826052188873291,
        -10.59229850769043
      ],
      "type": "VEC3"
    },
    {
      "bufferView": 2,
      "byteOffset": 3945720,
      "componentType": 5126,
      "count": 65532,
      "max": [
        0.9999905824661255,
        0.9999924898147583,
        0.9999189376831055
      ],
      "min": [
        -0.9999926090240479,
        -0.999992311000824,
        -0.9999296069145203
      ],
      "type": "VEC3"
    },
    {
      "bufferView": 1,
      "byteOffset": 1053112,
      "componentType": 5126,
      "count": 65532,
      "max": [
        0.0,
        0.0
      ],
      "min": [
        0.0,
        0.0
      ],
      "type": "VEC2"
    },
    {
      "bufferView": 0,
      "byteOffset": 2636820,
      "componentType": 5125,
      "count": 329913,
      "type": "SCALAR"
    },
    {
      "bufferView": 2,
      "byteOffset": 4732104,
      "componentType": 5126,
      "count": 65532,
      "max": [
        10.457721710205078,
        1.8605201244354248,
        13.926857948303223
      ],
      "min": [
        -10.468748092651367,
        -1.8604580163955688,
        -10.591769218444824
      ],
      "type": "VEC3"
    },
    {
      "bufferView": 2,
      "byteOffset": 5518488,
      "componentType": 5126,
      "count": 65532,
      "max": [
        0.9999220967292786,
        0.9999879002571106,
        0.9997816681861877
      ],
      "min": [
        -0.9999315738677979,
        -0.9999988079071045,
        -0.999768853187561
      ],
      "type": "VEC3"
    },
    {
      "bufferView": 1,
      "byteOffset": 1577368,
      "componentType": 5126,
      "count": 65532,
      "max": [
        0.0,
        0.0
      ],
      "min": [
        0.0,
        0.0
      ],
      "type": "VEC2"
    },
    {
      "bufferView": 0,
      "byteOffset": 3956472,
      "componentType": 5125,
      "count": 222948,
      "type": "SCALAR"
    },
    {
      "bufferView": 2,
      "byteOffset": 6304872,
      "componentType": 5126,
      "count": 4763,
      "max": [
        10.446147918701172,
        1.8589709997177124,
        13.904218673706055
      ],
      "min": [
        -10.452359199523926,
        -1.8453227281570435,
        -10.573244094848633
      ],
      "type": "VEC3"
    },
    {
      "bufferView": 2,
      "byteOffset": 6362028,
      "componentType": 5126,
      "count": 4763,
      "max": [
        0.9971148371696472,
        0.9999380707740784,
        0.9997795224189758
      ],
      "min": [
        -0.9997346997261047,
        -0.9999325275421143,
        -0.9983417391777039
      ],
      "type": "VEC3"
    },
    {
      "bufferView": 1,
      "byteOffset": 2101624,
      "componentType": 5126,
      "count": 4763,
      "max": [
        0.0,
        0.0
      ],
      "min": [
        0.0,
        0.0
      ],
      "type": "VEC2"
    },
    {
      "bufferView": 0,
      "byteOffset": 4848264,
      "componentType": 5125,
      "count": 6048,
      "type": "SCALAR"
    }
  ],
  "asset": {
    "extras": {
      "author": "Busanello (https://sketchfab.com/busanello)",
      "license": "CC-BY-4.0 (http://creativecommons.org/licenses/by/4.0/)",
      "source": "https://sketchfab.com/3d-models/black-diamond-solitaire-engagement-ring-61e45adb7e4a4d0f9f9d6f1375dc8334",
      "title": "Black Diamond Solitaire Engagement Ring"
    },
    "generator": "Sketchfab-15.55.0",
    "version": "2.0"
  },
  "bufferViews": [
    {
      "buffer": 0,
      "byteLength": 4872456,
      "name": "floatBufferViews",
      "target": 34963
    },
    {
      "buffer": 0,
      "byteLength": 2139728,
      "byteOffset": 4872456,
      "byteStride": 8,
      "name": "floatBufferViews",
      "target": 34962
    },
    {
      "buffer": 0,
      "byteLength": 6419184,
      "byteOffset": 7012184,
      "byteStride": 12,
      "name": "floatBufferViews",
      "target": 34962
    }
  ],
  "buffers": [
    {
      "byteLength": 13431368,
      "uri": "scene.bin"
    }
  ],
  "extensionsUsed": [
    "KHR_materials_specular"
  ],
  "images": [
    {
      "uri": "textures/Material_1_baseColor.png"
    }
  ],
  "materials": [
    {
      "doubleSided": true,
      "extensions": {
        "KHR_materials_specular": {
          "specularColorFactor": [
            1.0,
            1.0,
            1.0
          ],
          "specularFactor": 0.20621218131560223
        }
      },
      "name": "Default",
      "pbrMetallicRoughness": {
        "baseColorFactor": [
          0.0,
          0.0,
          0.0,
          1.0
        ],
        "metallicFactor": 0.11806040915015395,
        "roughnessFactor": 0.0
      }
    },
    {
      "doubleSided": true,
      "extensions": {
        "KHR_materials_specular": {
          "specularColorFactor": [
            1.0,
            1.0,
            1.0
          ],
          "specularFactor": 1.0
        }
      },
      "name": "Material_1",
      "pbrMetallicRoughness": {
        "baseColorTexture": {
          "index": 0
        },
        "metallicFactor": 0.9806884653406122,
        "roughnessFactor": 0.10546729884080419
      }
    }
  ],
  "meshes": [
    {
      "name": "Object_0",
      "primitives": [
        {
          "attributes": {
            "NORMAL": 1,
            "POSITION": 0,
            "TEXCOORD_0": 2
          },
          "indices": 3,
          "material": 0,
          "mode": 4
        }
      ]
    },
    {
      "name": "Object_1",
      "primitives": [
        {
          "attributes": {
            "NORMAL": 5,
            "POSITION": 4,
            "TEXCOORD_0": 6
          },
          "indices": 7,
          "material": 1,
          "mode": 4
        }
      ]
    },
    {
      "name": "Object_2",
      "primitives": [
        {
          "attributes": {
            "NORMAL": 9,
            "POSITION": 8,
            "TEXCOORD_0": 10
          },
          "indices": 11,
          "material": 1,
          "mode": 4
        }
      ]
    },
    {
      "name": "Object_3",
      "primitives": [
        {
          "attributes": {
            "NORMAL": 13,
            "POSITION": 12,
            "TEXCOORD_0": 14
          },
          "indices": 15,
          "material": 1,
          "mode": 4
        }
      ]
    },
    {
      "name": "Object_4",
      "primitives": [
        {
          "attributes": {
            "NORMAL": 17,
            "POSITION": 16,
            "TEXCOORD_0": 18
          },
          "indices": 19,
          "material": 1,
          "mode": 4
        }
      ]
    },
    {
      "name": "Object_5",
      "primitives": [
        {
          "attributes": {
            "NORMAL": 21,
            "POSITION": 20,
            "TEXCOORD_0": 22
          },
          "indices": 23,
          "material": 1,
          "mode": 4
        }
      ]
    }
  ],
  "nodes": [
    {
      "children": [
        1
      ],
      "matrix": [
        1.0,
        -1.6081226229577292e-16,
        -3.5707495248565405e-32,
        0.0,
        0.0,
        2.220446049250313e-16,
        -1.0,
        0.0,
        1.6081226229577292e-16,
        1.0,
        2.220446049250313e-16,
        0.0,
        0.0,
        0.0,
        0.0,
        1.0
      ],
      "name": "Sketchfab_model"
    },
    {
      "children": [
        2,
        3,
        4,
        5,
        6,
        7
      ],
      "name": "Ring.obj.cleaner.materialmerger.gles"
    },
    {
      "mesh": 0,
      "name": "Object_2"
    },
    {
      "mesh": 1,
      "name": "Object_3"
    },
    {
      "mesh": 2,
      "name": "Object_4"
    },
    {
      "mesh": 3,
      "name": "Object_5"
    },
    {
      "mesh": 4,
      "name": "Object_6"
    },
    {
      "mesh": 5,
      "name": "Object_7"
    }
  ],
  "samplers": [
    {
      "magFilter": 9729,
      "minFilter": 9987,
      "wrapS": 10497,
      "wrapT": 10497
    }
  ],
  "scene": 0,
  "scenes": [
    {
      "name": "Sketchfab_Scene",
      "nodes": [
        0
      ]
    }
  ],
  "textures": [
    {
      "sampler": 0,
      "source": 0
    }
  ]
}
